# xmcd
#
# Track frame offsets: 
#        150
#        23850
#        41100
#
# Disc length: 862 seconds
#
# Revision: 0
# Processed by: cddbd v1.5.2PL0 Copyright (c) Steve Scherf et al.
# Submitted via: ExactAudioCopyFreeDBPlugin 1.0
#
DISCID=1f035c03
DTITLE=Lewis Foreman - The Ride
DYEAR=2016
DGENRE=Blues
TTITLE0=Storyline
TTITLE1=Body and Soul
TTITLE2=The Ride
EXTD=
EXTT0=
EXTT1=
EXTT2=
PLAYORDER=
